<?xml version='1.0' encoding='utf-8'?>
<svg xmlns="http://www.w3.org/2000/svg" clip-rule="evenodd" fill-rule="evenodd" stroke-linejoin="round" stroke-miterlimit="2" version="1.1" viewBox="0 0 1734 1734"> <g transform="translate(-672.18 -595.06)"> <g transform="scale(4.1667)"> <g transform="matrix(.24 0 0 .24 16.649 2.741)"> <rect x="602.8" y="583.64" width="1733.5" height="1733.5" fill="#151515"/> </g> <g transform="matrix(0 1 1 0 290.28 257.5)"> <path d="m21.525-21.525c-11.888 0-21.525 9.637-21.525 21.525s9.637 21.525 21.525 21.525c11.889 0 21.526-9.637 21.526-21.525s-9.637-21.525-21.526-21.525" fill="#e94e1b" fill-rule="nonzero"/> </g> <g transform="matrix(-1 -.00017834 -.00017834 1 309.46 295.93)"> <path d="m10.873-33.643c-6.573 2.982-10.825 9.544-10.852 16.75-0.028 7.258 4.233 13.891 10.852 16.894-1.301-3.747-2.833-9.563-2.837-16.791-5e-3 -7.26 1.533-13.098 2.837-16.853" fill="#be1622" fill-rule="nonzero"/> </g> <g transform="translate(366.54 258.35)"> <path d="m0 17.747-17.747-17.747c-4.387 4.669-7.138 10.887-7.35 17.747h25.097z" fill="#f9b233" fill-rule="nonzero"/> </g> <g transform="translate(292.31 386.07)"> <path d="m0-24.368c27.59-27.166 55.179-54.332 82.769-81.498-2.51 7e-3 -5.032 7e-3 -7.545 0.013-6.078 6.227-12.155 12.453-18.233 18.68-2.322-2.015-6.597-6.307-8.957-13.152-0.675-1.96-1.082-3.812-1.323-5.487-8.211 4e-3 -16.424 6e-3 -24.65 2e-3 -0.645 12.764-11.168 22.923-24.093 22.923-12.956 0-23.498-10.208-24.098-23.014-20.473-0.066-40.907-0.155-61.26-0.289 27.775 27.274 55.551 54.548 83.326 81.822 0.119 31.451 0.239 62.901 0.358 94.352l-19.014 11.838h41.375l-19.014-11.838c0.12-31.451 0.239-62.901 0.359-94.352" fill="#5d63ab" fill-rule="nonzero"/> </g> <g transform="translate(269.48 467.73)"> <path d="M0,0.166L0.109,0.166C0.198,0.11 0.286,0.056 0.375,0C0.248,0.057 0.127,0.109 0,0.166" fill="#ececec" fill-rule="nonzero"/> </g> <g transform="translate(293.89 446.03)"> <path d="m0 11.228c5.691 3.543 11.382 7.087 17.073 10.63 27.469-17.435 40.565-27.369 39.293-29.807-1.399-2.681-20.189 3.712-56.366 19.177" fill-rule="nonzero"/> </g> <g transform="translate(366.54 295.55)"> <path d="m0-17.747h-25.097c0.212 6.861 2.963 13.078 7.35 17.747l17.747-17.747z" fill="#f9b233" fill-rule="nonzero"/> </g> <g transform="translate(367.74 249.8)"> <path d="M0,25.097L0,0C-6.86,0.212 -13.078,2.964 -17.747,7.35L0,25.097Z" fill="#f9b233" fill-rule="nonzero"/> </g> <g transform="translate(369.45 274.9)"> <path d="m0-25.097v25.097l17.748-17.747c-4.669-4.387-10.887-7.138-17.748-7.35" fill="#f9b233" fill-rule="nonzero"/> </g> <g transform="translate(370.65 258.35)"> <path d="m0 17.747h25.097c-0.212-6.86-2.964-13.078-7.35-17.747l-17.747 17.747z" fill="#f9b233" fill-rule="nonzero"/> </g> <g transform="translate(371.31 386.13)"> <path d="m0-24.432c25.85-25.383 51.7-50.767 77.55-76.151-3.028-1.288-6.258-3.09-9.359-5.607-21.163 0.09-42.325 0.18-63.488 0.27-13.433 16.841-26.867 33.683-40.3 50.524 10.511 10.321 21.022 20.643 31.533 30.964 0.119 31.451 0.239 62.901 0.358 94.352-6.337 3.946-12.676 7.892-19.014 11.838h41.375l-19.013-11.838c0.119-31.451 0.239-62.901 0.358-94.352" fill="#5d63ab" fill-rule="nonzero"/> </g> <g transform="translate(348.48 467.73)"> <path d="M0,0.165L0.109,0.165C0.198,0.109 0.286,0.055 0.375,0C0.248,0.056 0.127,0.108 0,0.165" fill="#ececec" fill-rule="nonzero"/> </g> <g transform="translate(372.89 446.03)"> <path d="m0 11.228c5.691 3.543 11.382 7.087 17.073 10.63 27.469-17.435 40.566-27.369 39.293-29.807-1.399-2.681-20.189 3.712-56.366 19.177" fill-rule="nonzero"/> </g> <g transform="translate(450.31 386.07)"> <path d="m0-24.368c27.775-27.274 55.551-54.548 83.325-81.822-23.317 0.099-46.635 0.198-69.953 0.298-0.305 4.485-1.216 7.688-1.498 8.625-1.118-0.062-6.056-0.414-12.028-2.724-11.849 14.853-23.697 29.706-35.544 44.56 10.545 10.354 21.089 20.708 31.634 31.063 0.12 31.451 0.239 62.901 0.359 94.352-6.339 3.946-12.677 7.892-19.015 11.838h41.375l-19.013-11.838c0.119-31.451 0.239-62.901 0.358-94.352" fill="#5d63ab" fill-rule="nonzero"/> </g> <g transform="translate(452.29 445.86)"> <path d="M0,11.652C5.56,15.114 11.118,18.576 16.678,22.037C44.751,4.548 58.171,-5.386 56.942,-7.77C55.594,-10.385 36.611,-3.91 0,11.652" fill-rule="nonzero"/> </g> <g transform="translate(248.06 350.84)"> <path d="M0,-46.136L42.28,0C42.099,-3.919 40.974,-18.111 29.674,-30.564C18.172,-43.239 3.834,-45.622 0,-46.136" fill="#505692" fill-rule="nonzero"/> </g> <g transform="translate(293.28 223.71)"> <path d="m0 32.005c1.742-4.882 6.915-17.227 19.864-25.563 5.745-3.699 11.312-5.507 15.464-6.442l8.594 15.281c-4-0.873-11.91-2.019-21.171 0.678-13.117 3.819-20.41 12.862-22.751 16.046" fill="#ca9e67" fill-rule="nonzero"/> </g> <g transform="translate(456.04 275.34)"> <path d="m0-47.147c-4.893 3.67-8.712 9.392-10.764 16.229 4.231 2.893 8.134 6.737 11.352 11.435 4.246 6.202 6.679 12.982 7.366 19.483 3.114-5.4 4.942-12.081 4.889-19.314-0.089-11.936-5.25-22.312-12.843-27.833" fill="#ced72a" fill-rule="nonzero"/> </g> <g transform="matrix(-.82511 .56497 .56497 .82511 471.11 273.87)"> <path d="m15.778-50.969c7.551 5.577 12.637 15.991 12.636 27.927 0 11.935-5.084 22.348-12.636 27.926-7.553-5.578-12.637-15.991-12.637-27.927 0-11.935 5.085-22.349 12.637-27.926" fill="#ced72a" fill-rule="nonzero"/> </g> <g transform="translate(308.93 225.88)"> <path d="m0 9.537c2.531-2.059 5.967-4.446 10.348-6.493 3.079-1.439 5.951-2.395 8.42-3.044 1.217 2.029 2.435 4.058 3.652 6.087-2.649-0.38-6.209-0.615-10.348-0.101-5.213 0.648-9.331 2.235-12.072 3.551" fill="#7d4e24" fill-rule="nonzero"/> </g> <g transform="translate(361.89 291.38)"> <path d="m0-11.276c-4.108 3.855-8.217 7.71-12.326 11.565-6e-3 -0.692 0.03-5.361 3.881-8.75 3.526-3.104 7.68-2.872 8.445-2.815" fill="#ce7e00" fill-rule="nonzero"/> </g> <g transform="translate(361.69 271.06)"> <path d="m0 3.768c-5.634 0.023-11.268 0.045-16.902 0.068 0.467-0.511 3.674-3.904 8.802-3.761 4.696 0.13 7.579 3.131 8.1 3.693" fill="#ce7e00" fill-rule="nonzero"/> </g> <g transform="translate(365.91 259.62)"> <path d="m0 12.108c-3.975-3.993-7.949-7.986-11.924-11.979 0.692-0.027 5.36-0.129 8.861 3.62 3.207 3.433 3.097 7.593 3.063 8.359" fill="#ce7e00" fill-rule="nonzero"/> </g> <g transform="translate(370.44 254.62)"> <path d="m0 16.902c-0.023-5.634-0.045-11.268-0.068-16.902 0.51 0.466 3.904 3.674 3.761 8.802-0.13 4.696-3.131 7.579-3.693 8.1" fill="#ce7e00" fill-rule="nonzero"/> </g> <g transform="translate(374 262.37)"> <path d="m0 11.78 11.979-11.924c0.027 0.692 0.128 5.36-3.621 8.861-3.432 3.207-7.591 3.097-8.358 3.063" fill="#ce7e00" fill-rule="nonzero"/> </g> <g transform="matrix(-.97712 .21269 .21269 .97712 471.11 265.62)"> <path d="m6.116-35.151c-1.651 2.898-5.188 10.034-4.663 19.6 0.404 7.368 3.036 12.858 4.663 15.701-0.843-4.895-1.495-10.773-1.508-17.426-0.016-6.844 0.647-12.877 1.508-17.875" fill="#9ea723" fill-rule="nonzero"/> </g> <g transform="matrix(-.81389 .58102 .58102 .81389 465.11 272.13)"> <path d="m12.568-40.241c1.788 2.245 8.383 11.063 7.813 23.836-0.482 10.83-5.83 18.182-7.813 20.66 1.701-4.796 3.608-11.907 3.816-20.673 0.244-10.342-1.98-18.642-3.816-23.823" fill="#9ea723" fill-rule="nonzero"/> </g> <g transform="translate(423.08 310.93)"> <path d="m0-0.584c-7.657-4.174-14.534-5.308-17.014-5.64l10.872 11.864c2.047-2.075 4.094-4.149 6.142-6.224" fill="#505692" fill-rule="nonzero"/> </g> <g transform="matrix(-.87984 .47528 .47528 .87984 449.86 345.37)"> <path d="m3.932-38.253c3.21 1.364 6.419 2.731 9.626 4.095l-9.626 38.252c-1.703-3.534-7.458-16.555-3.434-32.881 0.862-3.501 2.063-6.639 3.434-9.466" fill="#505692" fill-rule="nonzero"/> </g> <g transform="matrix(-.63378 .77351 .77351 .63378 480.32 316.83)"> <path d="m2.94-6.209c2.099 0 3.801 1.701 3.801 3.8s-1.702 3.801-3.801 3.8c-2.099 1e-3 -3.801-1.7-3.801-3.799s1.702-3.801 3.801-3.801" fill="#9ba7d5" fill-rule="nonzero"/> </g> <g transform="matrix(-.63382 .77348 .77348 .63382 404.74 286.84)"> <path d="m1.883-3.976c1.345-1e-3 2.434 1.09 2.434 2.434 0 1.345-1.09 2.435-2.434 2.435-1.345-1e-3 -2.436-1.09-2.436-2.434 1e-3 -1.346 1.09-2.436 2.436-2.435" fill="#6872b5" fill-rule="nonzero"/> </g> <g transform="matrix(-.63372 .77356 .77356 .63372 500.03 302.74)"> <path d="m1.883-3.979c1.345 0 2.434 1.091 2.434 2.435 1e-3 1.345-1.089 2.435-2.434 2.435-1.344 0-2.435-1.09-2.435-2.434 0-1.345 1.09-2.435 2.435-2.436" fill="#6872b5" fill-rule="nonzero"/> </g> <g transform="matrix(-.63372 .77356 .77356 .63372 467.87 317.1)"> <path d="m1.883-3.979c1.345 0 2.435 1.09 2.435 2.436 0 1.344-1.09 2.434-2.435 2.434-1.344 0-2.435-1.09-2.435-2.434 0-1.345 1.09-2.435 2.435-2.436" fill="#6872b5" fill-rule="nonzero"/> </g> <g transform="matrix(-.63372 .77356 .77356 .63372 518.39 286.2)"> <path d="m1.883-3.979c1.345 0 2.435 1.09 2.435 2.434 0 1.346-1.09 2.435-2.435 2.436-1.344 0-2.435-1.09-2.435-2.434 0-1.345 1.09-2.435 2.435-2.436" fill="#9ba7d5" fill-rule="nonzero"/> </g> <g transform="matrix(-.63378 .77351 .77351 .63378 424.93 299.52)"> <path d="m1.59-3.361c1.136-1e-3 2.057 0.921 2.058 2.058 0 1.136-0.921 2.057-2.058 2.057-1.136-1e-3 -2.057-0.921-2.058-2.057 0-1.136 0.922-2.058 2.058-2.058" fill="#6872b5" fill-rule="nonzero"/> </g> <g transform="matrix(.634 -.77333 -.77333 -.634 465.98 327.85)"> <path d="m-1.765-0.835c1.261 0 2.283 1.023 2.283 2.283 0 1.261-1.023 2.282-2.283 2.282-1.261 0-2.283-1.022-2.283-2.282 1e-3 -1.262 1.022-2.283 2.283-2.283" fill="#9ba7d5" fill-rule="nonzero"/> </g> <g transform="matrix(-.7735 -.6338 -.6338 .7735 440.18 317.22)"> <path d="m-2.218-6.208c1.933 0 3.5 1.567 3.5 3.5s-1.566 3.5-3.5 3.501c-1.933 0-3.499-1.568-3.499-3.501s1.566-3.499 3.499-3.5" fill="#9ba7d5" fill-rule="nonzero"/> </g> <g transform="matrix(-.77347 -.63383 -.63383 .77347 450.26 325.02)"> <path d="m-1.93-5.398c1.681 0 3.044 1.363 3.044 3.044s-1.363 3.043-3.044 3.043c-1.68 0-3.043-1.362-3.043-3.043s1.363-3.044 3.043-3.044" fill="#6872b5" fill-rule="nonzero"/> </g> <g transform="matrix(.77347 .63383 .63383 -.77347 469.97 296.1)"> <path d="m2.122-0.759c1.85 1e-3 3.349 1.499 3.349 3.348s-1.499 3.349-3.349 3.348c-1.849 0-3.347-1.499-3.347-3.348s1.499-3.348 3.347-3.348" fill="#6872b5" fill-rule="nonzero"/> </g> <g transform="matrix(.77342 .63389 .63389 -.77342 430.62 293.61)"> <path d="m1.447-0.517c1.26 0 2.283 1.022 2.283 2.282-1e-3 1.261-1.023 2.283-2.283 2.284-1.261-1e-3 -2.284-1.024-2.283-2.284 0-1.26 1.022-2.283 2.283-2.282" fill="#6872b5" fill-rule="nonzero"/> </g> <g transform="matrix(-.77344 -.63387 -.63387 .77344 410.86 292.77)"> <path d="m-2.412-6.747c2.101 0 3.804 1.703 3.804 3.804s-1.703 3.804-3.804 3.805c-2.102-1e-3 -3.805-1.704-3.804-3.804 0-2.101 1.702-3.805 3.804-3.805" fill="#9ba7d5" fill-rule="nonzero"/> </g> <g transform="matrix(-.77344 -.63387 -.63387 .77344 482.18 290.5)"> <path d="m-2.412-6.747c2.101 0 3.804 1.703 3.803 3.805 1e-3 2.1-1.702 3.803-3.803 3.804-2.102-1e-3 -3.805-1.704-3.804-3.804 0-2.101 1.702-3.805 3.804-3.805" fill="#9ba7d5" fill-rule="nonzero"/> </g> <g transform="matrix(.77353 .63376 .63376 -.77353 450.99 306.17)"> <path d="m0.794-0.284c0.69 0 1.25 0.561 1.252 1.253-1e-3 0.691-0.562 1.251-1.252 1.252-0.692-1e-3 -1.253-0.561-1.253-1.252s0.561-1.253 1.253-1.253" fill="#6872b5" fill-rule="nonzero"/> </g> <g transform="matrix(.77356 .63372 .63372 -.77356 460.35 307.69)"> <path d="m1.641-0.586c1.428-1e-3 2.588 1.157 2.589 2.588 0 1.429-1.159 2.59-2.589 2.589-1.429 1e-3 -2.589-1.159-2.588-2.588-1e-3 -1.43 1.158-2.589 2.588-2.589" fill="#9ba7d5" fill-rule="nonzero"/> </g> <g transform="matrix(.63386 -.77345 -.77345 -.63386 487.87 301.27)"> <path d="m-1.854-0.877c1.325 0 2.397 1.073 2.398 2.397 0 1.323-1.074 2.396-2.398 2.396-1.323 0-2.396-1.073-2.395-2.397-1e-3 -1.323 1.072-2.395 2.395-2.396" fill="#6872b5" fill-rule="nonzero"/> </g> <g transform="matrix(-.77353 -.63376 -.63376 .77353 451.23 340.45)"> <path d="m-3.954-11.064c3.445 0 6.239 2.793 6.239 6.239 0 3.445-2.793 6.239-6.239 6.239-3.445-1e-3 -6.239-2.794-6.238-6.238-2e-3 -3.447 2.792-6.24 6.238-6.24" fill="#6872b5" fill-rule="nonzero"/> </g> <g transform="matrix(-.77341 -.6339 -.6339 .77341 384.66 306.37)"> <path d="m-2.314-6.476c2.017 0 3.652 1.635 3.652 3.653-1e-3 2.016-1.636 3.651-3.652 3.651-2.018-1e-3 -3.652-1.635-3.653-3.652 0-2.017 1.635-3.653 3.653-3.652" fill="#6872b5" fill-rule="nonzero"/> </g> <g transform="matrix(.77346 .63384 .63384 -.77346 498.23 291.58)"> <path d="m2.254-0.806c1.965 1e-3 3.556 1.593 3.555 3.557 1e-3 1.964-1.591 3.555-3.555 3.556-1.964 0-3.556-1.593-3.556-3.557s1.592-3.555 3.556-3.556" fill="#6872b5" fill-rule="nonzero"/> </g> <g transform="matrix(.77335 .63398 .63398 -.77335 384.04 287.17)"> <path d="m1.592-0.569c1.387 1e-3 2.51 1.124 2.51 2.511s-1.124 2.511-2.51 2.511c-1.388-1e-3 -2.512-1.125-2.511-2.512s1.125-2.51 2.511-2.51" fill="#6872b5" fill-rule="nonzero"/> </g> <g transform="matrix(.7735 .63379 .63379 -.7735 453.32 294.73)"> <path d="m2.604-0.931c2.27 1e-3 4.109 1.84 4.109 4.109s-1.839 4.108-4.109 4.108c-2.269 0-4.108-1.839-4.108-4.108s1.839-4.109 4.108-4.109" fill="#6872b5" fill-rule="nonzero"/> </g> <g transform="matrix(-.63378 .77351 .77351 .63378 401.32 316.83)"> <path d="m2.94-6.209c2.099 0 3.801 1.701 3.801 3.8s-1.702 3.801-3.801 3.8c-2.099 1e-3 -3.801-1.7-3.801-3.799s1.702-3.801 3.801-3.801" fill="#9ba7d5" fill-rule="nonzero"/> </g> <g transform="matrix(-.63382 .77348 .77348 .63382 323.62 286.9)"> <path d="m1.883-3.977c1.345 0 2.435 1.09 2.435 2.435 0 1.344-1.09 2.434-2.435 2.434-1.345 1e-3 -2.435-1.089-2.435-2.433 0-1.346 1.09-2.436 2.435-2.436" fill="#6872b5" fill-rule="nonzero"/> </g> <g transform="matrix(-.63382 .77348 .77348 .63382 409.93 313.18)"> <path d="m1.883-3.976c1.345-1e-3 2.434 1.09 2.434 2.434 0 1.345-1.09 2.435-2.434 2.435-1.345-1e-3 -2.436-1.09-2.436-2.434 1e-3 -1.346 1.09-2.435 2.436-2.435" fill="#6872b5" fill-rule="nonzero"/> </g> <g transform="matrix(-.63372 .77356 .77356 .63372 388.87 317.1)"> <path d="m1.883-3.979c1.345 0 2.435 1.09 2.435 2.436 0 1.344-1.09 2.434-2.435 2.434-1.344 0-2.435-1.09-2.435-2.434 0-1.345 1.09-2.435 2.435-2.436" fill="#6872b5" fill-rule="nonzero"/> </g> <g transform="matrix(.63389 -.77342 -.77342 -.63389 386.98 327.85)"> <path d="m-1.766-0.835c1.262 0 2.284 1.022 2.284 2.283 0 1.26-1.022 2.282-2.284 2.283-1.259-1e-3 -2.282-1.023-2.282-2.283 1e-3 -1.261 1.022-2.283 2.282-2.283" fill="#9ba7d5" fill-rule="nonzero"/> </g> <g transform="matrix(-.7735 -.6338 -.6338 .7735 361.18 317.22)"> <path d="m-2.218-6.208c1.933 0 3.5 1.567 3.5 3.5s-1.566 3.5-3.5 3.501c-1.933 0-3.499-1.568-3.499-3.501s1.566-3.499 3.499-3.5" fill="#6872b5" fill-rule="nonzero"/> </g> <g transform="matrix(-.77347 -.63383 -.63383 .77347 371.26 325.02)"> <path d="m-1.93-5.398c1.681 0 3.044 1.363 3.044 3.044s-1.363 3.043-3.044 3.043c-1.68 0-3.043-1.362-3.043-3.043s1.363-3.044 3.043-3.044" fill="#6872b5" fill-rule="nonzero"/> </g> <g transform="matrix(.77347 .63383 .63383 -.77347 390.96 296.1)"> <path d="m2.122-0.759c1.85 1e-3 3.349 1.499 3.349 3.348s-1.499 3.349-3.349 3.348c-1.849 0-3.347-1.499-3.347-3.348s1.499-3.348 3.347-3.348" fill="#6872b5" fill-rule="nonzero"/> </g> <g transform="matrix(-.77344 -.63387 -.63387 .77344 329.98 289.94)"> <path d="m-2.412-6.747c2.102 0 3.805 1.703 3.804 3.805 0 2.101-1.702 3.804-3.804 3.804-2.101-1e-3 -3.804-1.703-3.804-3.805 0-2.101 1.703-3.804 3.804-3.804" fill="#9ba7d5" fill-rule="nonzero"/> </g> <g transform="matrix(.77353 .63376 .63376 -.77353 365.31 306.17)"> <path d="m0.794-0.284c0.691 1e-3 1.251 0.562 1.252 1.253-1e-3 0.691-0.561 1.252-1.252 1.252-0.692-1e-3 -1.252-0.56-1.253-1.252 0-0.691 0.561-1.253 1.253-1.253" fill="#6872b5" fill-rule="nonzero"/> </g> <g transform="matrix(.77339 .63393 .63393 -.77339 373.53 311.34)"> <path d="m1.641-0.586c1.43 0 2.589 1.158 2.59 2.589-1e-3 1.429-1.161 2.589-2.59 2.588-1.43 0-2.589-1.159-2.588-2.589-1e-3 -1.43 1.159-2.588 2.588-2.588" fill="#9ba7d5" fill-rule="nonzero"/> </g> <g transform="matrix(.63376 -.77353 -.77353 -.63376 406.14 300.31)"> <path d="m-1.854-0.878c1.323 0 2.396 1.073 2.396 2.397 1e-3 1.323-1.072 2.396-2.396 2.397-1.324 0-2.397-1.074-2.396-2.396 0-1.324 1.072-2.398 2.396-2.398" fill="#6872b5" fill-rule="nonzero"/> </g> <g transform="matrix(-.77353 -.63376 -.63376 .77353 372.23 340.45)"> <path d="m-3.954-11.064c3.445 0 6.239 2.793 6.239 6.239 0 3.445-2.793 6.239-6.239 6.239-3.445-1e-3 -6.239-2.794-6.238-6.238-2e-3 -3.447 2.792-6.24 6.238-6.24" fill="#9ba7d5" fill-rule="nonzero"/> </g> <g transform="matrix(-.77354 -.63375 -.63375 .77354 313.02 307.9)"> <path d="m-2.314-6.477c2.016 0 3.652 1.635 3.652 3.652s-1.635 3.653-3.652 3.652c-2.017 0-3.652-1.634-3.652-3.651-1e-3 -2.018 1.635-3.653 3.652-3.653" fill="#6872b5" fill-rule="nonzero"/> </g> <g transform="matrix(.77346 .63384 .63384 -.77346 422.78 287.51)"> <path d="m2.254-0.806c1.965 1e-3 3.556 1.593 3.556 3.557s-1.592 3.555-3.556 3.555-3.555-1.592-3.555-3.556 1.591-3.556 3.555-3.556" fill="#6872b5" fill-rule="nonzero"/> </g> <g transform="matrix(.7735 .63379 .63379 -.7735 372.04 296.25)"> <path d="m2.604-0.931c2.269 0 4.109 1.84 4.109 4.109s-1.839 4.108-4.109 4.109c-2.269 0-4.109-1.84-4.109-4.109s1.84-4.109 4.109-4.109" fill="#9ba7d5" fill-rule="nonzero"/> </g> <g transform="matrix(-.62356 .78178 .78178 .62356 374.8 338.58)"> <path d="m-3.597-35.445h10.491l6.094 38.827c-2.951-2.585-13.344-12.314-16.033-28.913-0.568-3.505-0.697-6.817-0.552-9.914" fill="#505692" fill-rule="nonzero"/> </g> <g transform="translate(344.18 310.95)"> <path d="m0-0.556c-7.695-4.216-14.618-5.358-17.108-5.692l10.942 11.94c2.055-2.082 4.11-4.165 6.166-6.248" fill="#505692" fill-rule="nonzero"/> </g> <g transform="matrix(-.63386 .77345 .77345 .63386 322.32 316.83)"> <path d="m2.941-6.209c2.098 0 3.8 1.701 3.8 3.801 0 2.098-1.702 3.8-3.8 3.8-2.1 0-3.802-1.701-3.802-3.8 0-2.1 1.702-3.801 3.802-3.801" fill="#9ba7d5" fill-rule="nonzero"/> </g> <g transform="matrix(-.63372 .77356 .77356 .63372 242.49 292.68)"> <path d="m1.884-3.977c1.344 0 2.435 1.09 2.435 2.434 0 1.345-1.091 2.436-2.435 2.436-1.345 0-2.435-1.09-2.435-2.434-1e-3 -1.346 1.089-2.436 2.435-2.436" fill="#9ba7d5" fill-rule="nonzero"/> </g> <g transform="matrix(-.63382 .77348 .77348 .63382 309.86 317.1)"> <path d="m1.883-3.977c1.345 0 2.435 1.09 2.435 2.435 0 1.344-1.09 2.434-2.435 2.434-1.345 1e-3 -2.434-1.09-2.434-2.434-1e-3 -1.345 1.089-2.435 2.434-2.435" fill="#6872b5" fill-rule="nonzero"/> </g> <g transform="matrix(-.63378 .77351 .77351 .63378 266.93 299.52)"> <path d="m1.592-3.361c1.136 0 2.056 0.921 2.057 2.058 0 1.136-0.921 2.057-2.057 2.056-1.137 0-2.058-0.92-2.059-2.057 0-1.136 0.922-2.058 2.059-2.057" fill="#6872b5" fill-rule="nonzero"/> </g> <g transform="matrix(-.77342 -.63389 -.63389 .77342 270.52 309.6)"> <path d="m-1.448-4.049c1.261 1e-3 2.283 1.023 2.283 2.284 0 1.26-1.022 2.282-2.283 2.282-1.261-1e-3 -2.283-1.023-2.283-2.282 1e-3 -1.261 1.023-2.284 2.283-2.284" fill="#6872b5" fill-rule="nonzero"/> </g> <g transform="matrix(.63389 -.77342 -.77342 -.63389 307.98 327.85)"> <path d="m-1.766-0.836c1.261 1e-3 2.283 1.023 2.283 2.284 0 1.26-1.022 2.282-2.283 2.282-1.26 0-2.283-1.023-2.282-2.283 0-1.26 1.022-2.283 2.282-2.283" fill="#6872b5" fill-rule="nonzero"/> </g> <g transform="matrix(-.77344 -.63387 -.63387 .77344 282.17 317.22)"> <path d="m-2.218-6.206c1.933 0 3.5 1.567 3.5 3.499 0 1.933-1.567 3.501-3.5 3.501-1.933-1e-3 -3.5-1.568-3.5-3.501 0-1.932 1.567-3.499 3.5-3.499" fill="#9ba7d5" fill-rule="nonzero"/> </g> <g transform="matrix(-.77347 -.63383 -.63383 .77347 292.25 325.02)"> <path d="m-1.93-5.398c1.681 0 3.044 1.363 3.044 3.044s-1.363 3.043-3.044 3.043c-1.68 0-3.043-1.362-3.043-3.043s1.363-3.044 3.043-3.044" fill="#6872b5" fill-rule="nonzero"/> </g> <g transform="matrix(.77347 .63383 .63383 -.77347 309.8 298.5)"> <path d="m2.122-0.758c1.849-1e-3 3.348 1.499 3.348 3.347 0 1.849-1.499 3.348-3.348 3.348-1.849 1e-3 -3.347-1.499-3.347-3.348 0-1.848 1.498-3.347 3.347-3.347" fill="#6872b5" fill-rule="nonzero"/> </g> <g transform="matrix(-.77351 -.63379 -.63379 .77351 252.86 292.77)"> <path d="m-2.412-6.747c2.101 0 3.805 1.703 3.804 3.805 1e-3 2.1-1.703 3.803-3.804 3.803-2.101 1e-3 -3.804-1.703-3.804-3.803 0-2.101 1.703-3.805 3.804-3.805" fill="#9ba7d5" fill-rule="nonzero"/> </g> <g transform="matrix(.77353 .63376 .63376 -.77353 292.98 306.17)"> <path d="m0.794-0.284c0.691 1e-3 1.252 0.561 1.252 1.253-1e-3 0.691-0.561 1.252-1.252 1.252-0.692-1e-3 -1.252-0.56-1.253-1.252 0-0.691 0.561-1.253 1.253-1.253" fill="#6872b5" fill-rule="nonzero"/> </g> <g transform="matrix(.77348 .63382 .63382 -.77348 302.35 307.69)"> <path d="m1.641-0.586c1.429-1e-3 2.589 1.158 2.589 2.588s-1.16 2.589-2.589 2.588c-1.431 1e-3 -2.589-1.158-2.589-2.588s1.159-2.588 2.589-2.588" fill="#9ba7d5" fill-rule="nonzero"/> </g> <g transform="matrix(.63376 -.77353 -.77353 -.63376 331.13 298.32)"> <path d="m-1.854-0.877c1.324 0 2.397 1.073 2.397 2.396 0 1.324-1.073 2.397-2.397 2.397-1.323 0-2.396-1.073-2.396-2.396 0-1.324 1.072-2.397 2.396-2.397" fill="#6872b5" fill-rule="nonzero"/> </g> <g transform="matrix(-.77346 -.63385 -.63385 .77346 293.23 340.45)"> <path d="m-3.955-11.064c3.446 0 6.239 2.793 6.239 6.238 0 3.446-2.793 6.239-6.239 6.239-3.445 0-6.239-2.794-6.239-6.239 1e-3 -3.445 2.793-6.239 6.239-6.238" fill="#6872b5" fill-rule="nonzero"/> </g> <g transform="matrix(-.77354 -.63375 -.63375 .77354 238.33 303.78)"> <path d="m-2.314-6.477c2.016 0 3.652 1.635 3.652 3.652s-1.635 3.653-3.652 3.652c-2.017 0-3.652-1.634-3.652-3.651-1e-3 -2.018 1.635-3.653 3.652-3.653" fill="#6872b5" fill-rule="nonzero"/> </g> <g transform="matrix(.77346 .63384 .63384 -.77346 337.28 300.04)"> <path d="m2.254-0.806c1.964 0 3.556 1.593 3.555 3.556 1e-3 1.965-1.591 3.556-3.555 3.556s-3.556-1.591-3.556-3.557c1e-3 -1.963 1.592-3.555 3.556-3.555" fill="#6872b5" fill-rule="nonzero"/> </g> <g transform="matrix(.77345 .63386 .63386 -.77345 226.04 287.17)"> <path d="m1.592-0.569c1.387 0 2.51 1.124 2.511 2.511 0 1.387-1.124 2.511-2.511 2.511-1.387-1e-3 -2.512-1.125-2.512-2.511 1e-3 -1.387 1.125-2.511 2.512-2.511" fill="#6872b5" fill-rule="nonzero"/> </g> </g> </g> </svg>